# xmcd CD database file
# Copyright (C) 1993-1996 Ti Kan
#
# Track frame offsets:
# 150
# 11962
# 22862
# 33650
# 46245
# 58212
# 68932
# 83222
# 95130
# 109500
#
# Disc length: 1626 seconds
# Revision: 0
# Processed by: cddbd v1.4b41PL1 Copyright (c) Steve Scherf et al.
# Submitted via: CDSpectrumPro v3.2.327
#
DISCID=8306580a
DTITLE=Jason Petty - Lost Highway -- The Music And Legend Of Hank Williams
DYEAR=1900
DGENRE=
TTITLE0=Hey Good Lookin'
TTITLE1=I Can't Help It ( If I'm Still In Love With You )
TTITLE2=Jambalaya ( On The Bayou )
TTITLE3=Lovesick Blues
TTITLE4=I'm So Lonesome I Could Cry
TTITLE5=Your Cheatin' Heart
TTITLE6=Kaw-Liga
TTITLE7=Long Gone Lonesome Blues
TTITLE8=Lost Highway
TTITLE9=I Saw The Light
EXTD=
EXTT0=
EXTT1=
EXTT2=
EXTT3=
EXTT4=
EXTT5=
EXTT6=
EXTT7=
EXTT8=
EXTT9=
PLAYORDER=
